<svg xmlns="http://www.w3.org/2000/svg" viewBox="0 0 512 512">
  <rect width="512" height="512" fill="#f7f2ea"/>
  <circle cx="160" cy="132" r="68" fill="#78c6a3"/>
  <circle cx="362" cy="142" r="52" fill="#f2b84b"/>
  <path d="M150 456h212c42 0 76-34 76-76V196c0-42-34-76-76-76H150c-42 0-76 34-76 76v184c0 42 34 76 76 76Z" fill="#151515"/>
  <path d="M150 136h212c34 0 60 26 60 60v184c0 34-26 60-60 60H150c-34 0-60-26-60-60V196c0-34 26-60 60-60Z" fill="#2b2d42"/>
  <path d="M126 372c72-16 131-56 178-120 42-58 81-87 118-88v216c0 34-26 60-60 60H150c-34 0-60-26-60-60v-1c12-1 24-3 36-7Z" fill="#4f7cac"/>
  <path d="M150 158h58c-38 42-58 90-58 144 0 43 12 82 36 116h-36c-22 0-38-16-38-38V196c0-22 16-38 38-38Z" fill="#ffffff" opacity=".18"/>
  <path d="M252 198h104c12 0 22 10 22 22v16c0 12-10 22-22 22H252c-12 0-22-10-22-22v-16c0-12 10-22 22-22Z" fill="#f4d35e"/>
  <path d="M232 292h146v34H232z" fill="#ffffff" opacity=".78"/>
  <path d="M232 346h104v22H232z" fill="#ffffff" opacity=".5"/>
</svg>
