<svg xmlns="http://www.w3.org/2000/svg" width="297" height="210" viewBox="0 0 297 210">
  <path data-canvas-object-id="m40c-guide-overall-bounds" data-canvas-kind="path" data-canvas-name="overall body bounds" d="M 50 14 H 176 V 190 H 50 Z" fill="none" stroke="#ef5340" stroke-width="0.45" />
  <path data-canvas-object-id="m40c-guide-top-head-region" data-canvas-kind="path" data-canvas-name="top head region" d="M 72 14 H 120 V 52 H 72 Z" fill="none" stroke="#ef5340" stroke-width="0.45" />
  <path data-canvas-object-id="m40c-guide-center-boss-region" data-canvas-kind="path" data-canvas-name="center boss region" d="M 66 80 H 126 V 136 H 66 Z" fill="none" stroke="#ef5340" stroke-width="0.45" />
  <path data-canvas-object-id="m40c-guide-right-boss-region" data-canvas-kind="path" data-canvas-name="right boss region" d="M 126 70 H 166 V 114 H 126 Z" fill="none" stroke="#ef5340" stroke-width="0.45" />
  <path data-canvas-object-id="m40c-guide-slot-region" data-canvas-kind="path" data-canvas-name="lower slot region" d="M 76 144 H 158 V 188 H 76 Z" fill="none" stroke="#ef5340" stroke-width="0.45" />
  <path data-canvas-object-id="m40c-guide-vertical-centerline" data-canvas-kind="path" data-canvas-name="Main vertical centerline" d="M 96 10 L 96 194" fill="none" stroke="#ef5340" stroke-width="0.28" stroke-dasharray="8 4 2 4" />
  <path data-canvas-object-id="m40c-guide-main-horizontal" data-canvas-kind="path" data-canvas-name="Main bore horizontal datum" d="M 34 108 L 182 108" fill="none" stroke="#ef5340" stroke-width="0.28" stroke-dasharray="8 4 2 4" />
  <path data-canvas-object-id="m40c-guide-top-horizontal" data-canvas-kind="path" data-canvas-name="Top head datum" d="M 56 32 L 136 32" fill="none" stroke="#ef5340" stroke-width="0.28" stroke-dasharray="8 4 2 4" />
  <path data-canvas-object-id="m40c-guide-right-horizontal" data-canvas-kind="path" data-canvas-name="Right boss horizontal datum" d="M 96 92 L 172 92" fill="none" stroke="#ef5340" stroke-width="0.28" stroke-dasharray="8 4 2 4" />
  <path data-canvas-object-id="m40c-guide-slot-axis" data-canvas-kind="path" data-canvas-name="Slot center axis" d="M 75.53290992699185 180.36484601967808 L 154.46709007300814 151.63515398032192" fill="none" stroke="#ef5340" stroke-width="0.28" stroke-dasharray="8 4 2 4" />
  <path data-canvas-object-id="m40c-guide-top-arc-cue" data-canvas-kind="path" data-canvas-name="Top head arc cue" d="M 78 32 A 18 18 0 0 1 114 32" fill="none" stroke="#ef5340" stroke-width="0.4" />
  <path data-canvas-object-id="m40c-guide-lower-arc-cue" data-canvas-kind="path" data-canvas-name="Lower sweep arc cue" d="M 72 180 A 84.346404 84.346404 0 0 0 164 167" fill="none" stroke="#ef5340" stroke-width="0.4" />
  <path data-canvas-object-id="m40c-guide-top-center" data-canvas-kind="path" data-canvas-name="Top center" d="M 92 32 L 100 32 M 96 28 L 96 36" fill="none" stroke="#ef5340" stroke-width="0.3" />
  <path data-canvas-object-id="m40c-guide-main-center" data-canvas-kind="path" data-canvas-name="Main bore center" d="M 91 108 L 101 108 M 96 103 L 96 113" fill="none" stroke="#ef5340" stroke-width="0.3" />
  <path data-canvas-object-id="m40c-guide-right-center" data-canvas-kind="path" data-canvas-name="Right hole center" d="M 140 92 L 148 92 M 144 88 L 144 96" fill="none" stroke="#ef5340" stroke-width="0.3" />
  <path data-canvas-object-id="m40c-guide-slot-center" data-canvas-kind="path" data-canvas-name="Slot center" d="M 111 166 L 119 166 M 115 162 L 115 170" fill="none" stroke="#ef5340" stroke-width="0.3" />
</svg>
