<svg xmlns="http://www.w3.org/2000/svg" width="297mm" height="210mm" viewBox="0 0 297 210">
  <path data-canvas-object-id="exercise-354-global-bounding-box" data-canvas-kind="path" data-canvas-name="global bounding" d="M 35 32 H 223 V 166 H 35 Z" fill="none" stroke="#f04a24" stroke-width="0.5" />
  <path data-canvas-object-id="exercise-354-global-datum-horizontal" data-canvas-kind="path" data-canvas-name="Main horizontal datum through bore and slot" d="M 35 78 L 223 78" fill="none" stroke="#f04a24" stroke-width="0.35" stroke-dasharray="8 4 2 4" />
  <path data-canvas-object-id="exercise-354-global-datum-bore-vertical" data-canvas-kind="path" data-canvas-name="Main vertical datum through large bore" d="M 74 32 L 74 166" fill="none" stroke="#f04a24" stroke-width="0.35" stroke-dasharray="8 4 2 4" />
  <path data-canvas-object-id="exercise-354-global-datum-slot-left" data-canvas-kind="path" data-canvas-name="Slot left extent datum" d="M 159 60 L 159 96" fill="none" stroke="#f04a24" stroke-width="0.35" stroke-dasharray="8 4 2 4" />
  <path data-canvas-object-id="exercise-354-global-datum-slot-right" data-canvas-kind="path" data-canvas-name="Slot right extent datum" d="M 213 60 L 213 96" fill="none" stroke="#f04a24" stroke-width="0.35" stroke-dasharray="8 4 2 4" />
  <path data-canvas-object-id="exercise-354-global-datum-lower-extent" data-canvas-kind="path" data-canvas-name="Lower lobe extent datum" d="M 58 166 L 172 166" fill="none" stroke="#f04a24" stroke-width="0.35" stroke-dasharray="8 4 2 4" />
  <path data-canvas-object-id="exercise-354-global-lower-arc-cue" data-canvas-kind="path" data-canvas-name="Lower construction arc cue" d="M 75 152 A 92.875674 92.875674 0 0 0 151 114" fill="none" stroke="#f04a24" stroke-width="0.45" stroke-dasharray="3 3" />
  <path data-canvas-object-id="exercise-354-global-bore-center" data-canvas-kind="path" data-canvas-name="Large bore center mark" d="M 68 78 L 80 78 M 74 72 L 74 84" fill="none" stroke="#f04a24" stroke-width="0.35" />
  <path data-canvas-object-id="exercise-354-global-left-small-hole-center" data-canvas-kind="path" data-canvas-name="Left small-hole center cue" d="M 80 144 L 92 144 M 86 138 L 86 150" fill="none" stroke="#f04a24" stroke-width="0.35" />
  <path data-canvas-object-id="exercise-354-global-right-small-hole-center" data-canvas-kind="path" data-canvas-name="Right small-hole center cue" d="M 120 132 L 132 132 M 126 126 L 126 138" fill="none" stroke="#f04a24" stroke-width="0.35" />
  <path data-canvas-object-id="exercise-354-feature-box-boss" data-canvas-kind="path" data-canvas-name="large boss blockout" d="M 35 38 H 113 V 118 H 35 Z" fill="none" stroke="#00d92f" stroke-width="0.5" />
  <path data-canvas-object-id="exercise-354-feature-box-large-hole" data-canvas-kind="path" data-canvas-name="large hole blockout" d="M 54 58 H 94 V 98 H 54 Z" fill="none" stroke="#00d92f" stroke-width="0.5" />
  <path data-canvas-object-id="exercise-354-feature-box-right-arm" data-canvas-kind="path" data-canvas-name="right arm blockout" d="M 112 58 H 223 V 98 H 112 Z" fill="none" stroke="#00d92f" stroke-width="0.5" />
  <path data-canvas-object-id="exercise-354-feature-box-slot" data-canvas-kind="path" data-canvas-name="slot blockout" d="M 159 68 H 213 V 88 H 159 Z" fill="none" stroke="#00d92f" stroke-width="0.5" />
  <path data-canvas-object-id="exercise-354-feature-box-lower-lobe" data-canvas-kind="path" data-canvas-name="lower lobe blockout" d="M 58 98 H 172 V 166 H 58 Z" fill="none" stroke="#00d92f" stroke-width="0.5" />
  <path data-canvas-object-id="exercise-354-feature-box-left-small-hole" data-canvas-kind="path" data-canvas-name="small left hole blockout" d="M 79 137 H 93 V 151 H 79 Z" fill="none" stroke="#00d92f" stroke-width="0.5" />
  <path data-canvas-object-id="exercise-354-feature-box-right-small-hole" data-canvas-kind="path" data-canvas-name="small right hole blockout" d="M 119 125 H 133 V 139 H 119 Z" fill="none" stroke="#00d92f" stroke-width="0.5" />
  <path data-canvas-object-id="exercise-354-feature-box-inside-relief" data-canvas-kind="path" data-canvas-name="inside relief cue" d="M 156 98 H 174 V 116 H 156 Z" fill="none" stroke="#00d92f" stroke-width="0.5" />
  <path data-canvas-object-id="exercise-354-feature-large-hole-center" data-canvas-kind="path" data-canvas-name="Large hole blockout center" d="M 68 78 L 80 78 M 74 72 L 74 84" fill="none" stroke="#f04a24" stroke-width="0.35" />
  <path data-canvas-object-id="exercise-354-feature-slot-left-center" data-canvas-kind="path" data-canvas-name="Slot left radius center" d="M 163 78 L 175 78 M 169 72 L 169 84" fill="none" stroke="#f04a24" stroke-width="0.35" />
  <path data-canvas-object-id="exercise-354-feature-slot-right-center" data-canvas-kind="path" data-canvas-name="Slot right radius center" d="M 197 78 L 209 78 M 203 72 L 203 84" fill="none" stroke="#f04a24" stroke-width="0.35" />
  <path data-canvas-object-id="exercise-354-feature-left-small-hole-center" data-canvas-kind="path" data-canvas-name="Left small-hole center" d="M 80 144 L 92 144 M 86 138 L 86 150" fill="none" stroke="#f04a24" stroke-width="0.35" />
  <path data-canvas-object-id="exercise-354-feature-right-small-hole-center" data-canvas-kind="path" data-canvas-name="Right small-hole center" d="M 120 132 L 132 132 M 126 126 L 126 138" fill="none" stroke="#f04a24" stroke-width="0.35" />
  <path data-canvas-object-id="exercise-354-blockout-filled-body-profile" data-canvas-kind="path" data-canvas-name="Filled body profile lowered from blockout masks" d="M 74 38 C 53 38 35 57 35 78 C 35 94 44 108 58 118 C 66 124 69 133 63 144 C 56 157 62 166 76 166 C 101 165 132 153 151 126 C 157 116 158 107 170 98 L 203 98 A 20 20 0 0 0 203 58 L 126 58 A 31.006383 31.006383 0 0 1 98 48 C 92 41 84 38 74 38 Z M 54 78 A 20 20 0 0 1 94 78 A 20 20 0 0 1 54 78 Z M 79 144 A 7 7 0 0 1 93 144 A 7 7 0 0 1 79 144 Z M 119 132 A 7 7 0 0 1 133 132 A 7 7 0 0 1 119 132 Z M 169 68 L 203 68 A 10 10 0 0 1 203 88 L 169 88 A 10 10 0 0 1 169 68 Z" fill="#68bfe9" fill-rule="evenodd" stroke="none" stroke-width="0" />
  <path data-canvas-object-id="exercise-354-blockout-outer-profile" data-canvas-kind="path" data-canvas-name="Outer profile lowered from body blockouts" d="M 74 38 C 53 38 35 57 35 78 C 35 94 44 108 58 118 C 66 124 69 133 63 144 C 56 157 62 166 76 166 C 101 165 132 153 151 126 C 157 116 158 107 170 98 L 203 98 A 20 20 0 0 0 203 58 L 126 58 A 31.006383 31.006383 0 0 1 98 48 C 92 41 84 38 74 38 Z" fill="none" stroke="#1c2430" stroke-width="0.55" />
  <ellipse data-canvas-object-id="exercise-354-blockout-large-hole" data-canvas-kind="ellipse" data-canvas-name="Large hole lowered from feature box" cx="74" cy="78" rx="20" ry="20" fill="none" stroke="#1c2430" />
  <path data-canvas-object-id="exercise-354-blockout-rounded-slot" data-canvas-kind="path" data-canvas-name="Rounded slot lowered from slot box" d="M 169 68 L 203 68 A 10 10 0 0 1 203 88 L 169 88 A 10 10 0 0 1 169 68 Z" fill="none" stroke="#1c2430" stroke-width="0.55" />
  <ellipse data-canvas-object-id="exercise-354-blockout-left-small-hole" data-canvas-kind="ellipse" data-canvas-name="Left small hole lowered from feature box" cx="86" cy="144" rx="7" ry="7" fill="none" stroke="#1c2430" />
  <ellipse data-canvas-object-id="exercise-354-blockout-right-small-hole" data-canvas-kind="ellipse" data-canvas-name="Right small hole lowered from feature box" cx="126" cy="132" rx="7" ry="7" fill="none" stroke="#1c2430" />
  <path data-canvas-object-id="exercise-354-blockout-bore-centerline-x" data-canvas-kind="path" data-canvas-name="Bore and slot horizontal centerline" d="M 28 78 L 225 78" fill="none" stroke="#7f8896" stroke-width="0.35" stroke-dasharray="8 4 2 4" />
  <path data-canvas-object-id="exercise-354-blockout-bore-centerline-y" data-canvas-kind="path" data-canvas-name="Large bore vertical centerline" d="M 74 28 L 74 176" fill="none" stroke="#7f8896" stroke-width="0.35" stroke-dasharray="8 4 2 4" />
  <path data-canvas-object-id="exercise-354-blockout-small-hole-axis" data-canvas-kind="path" data-canvas-name="Small-hole construction axis" d="M 78 147 L 135 129" fill="none" stroke="#7f8896" stroke-width="0.35" stroke-dasharray="8 4 2 4" />
  <path data-canvas-object-id="exercise-354-blockout-angle-leg-a" data-canvas-kind="path" data-canvas-name="Angle construction leg A" d="M 74 166 L 74 151" fill="none" stroke="#7f8896" stroke-width="0.35" stroke-dasharray="8 4 2 4" />
  <path data-canvas-object-id="exercise-354-blockout-angle-leg-b" data-canvas-kind="path" data-canvas-name="Angle construction leg B" d="M 74 166 L 126 132" fill="none" stroke="#7f8896" stroke-width="0.35" stroke-dasharray="8 4 2 4" />
  <g class="canvas-mechanical-overlay" data-canvas-object-id="exercise-354-blockout-mechanical-annotations" data-canvas-kind="mechanicalAnnotationSidecar" data-canvas-name="Exercise 354 blockout mechanical annotations">
    <g class="canvas-mechanical-annotation-layer" font-family="Arial, Helvetica, sans-serif" fill="none" stroke="#253043" stroke-linecap="square" stroke-linejoin="miter"><defs><marker id="canvas-mechanical-arrow" markerWidth="5" markerHeight="5" refX="2.5" refY="2.5" orient="auto-start-reverse"><path d="M 5 2.5 L 0 0 L 0 5 Z" fill="#253043" stroke="none" /></marker></defs><g class="canvas-mechanical-sheet-frame" data-canvas-mechanical-sheet="A4-landscape"><rect class="canvas-mechanical-sheet-boundary" x="0" y="0" width="297" height="210" fill="none" stroke="#253043" stroke-width="0.35" /><rect class="canvas-mechanical-sheet-margin" x="10" y="10" width="277" height="190" fill="none" stroke="#7f8896" stroke-width="0.25" stroke-dasharray="2 1.4" /><rect class="canvas-mechanical-sheet-content" x="10" y="10" width="277" height="190" fill="none" stroke="#c7ccd4" stroke-width="0.25" /></g><line class="canvas-mechanical-extension" x1="74" y1="38" x2="74" y2="16" stroke="#253043" stroke-width="0.25" /><line class="canvas-mechanical-extension" x1="203" y1="38" x2="203" y2="16" stroke="#253043" stroke-width="0.25" /><line class="canvas-mechanical-dimension" x1="74" y1="16" x2="203" y2="16" stroke="#253043" stroke-width="0.35" marker-start="url(#canvas-mechanical-arrow)" marker-end="url(#canvas-mechanical-arrow)" /><g class="canvas-mechanical-label-group"><rect class="canvas-mechanical-label-backplate" x="133.194" y="6.6" width="10.612000000000002" height="6.4" fill="#ffffff" stroke="none" /><text class="canvas-mechanical-label" x="138.5" y="12" text-anchor="middle" fill="#253043" font-size="4.2" stroke="none">100</text></g><line class="canvas-mechanical-extension" x1="169" y1="68" x2="169" y2="51" stroke="#253043" stroke-width="0.25" /><line class="canvas-mechanical-extension" x1="203" y1="68" x2="203" y2="51" stroke="#253043" stroke-width="0.25" /><line class="canvas-mechanical-dimension" x1="169" y1="51" x2="203" y2="51" stroke="#253043" stroke-width="0.35" marker-start="url(#canvas-mechanical-arrow)" marker-end="url(#canvas-mechanical-arrow)" /><g class="canvas-mechanical-label-group"><rect class="canvas-mechanical-label-backplate" x="181.996" y="41.599999999999994" width="8.008" height="6.4" fill="#ffffff" stroke="none" /><text class="canvas-mechanical-label" x="186" y="47" text-anchor="middle" fill="#253043" font-size="4.2" stroke="none">30</text></g><line class="canvas-mechanical-extension" x1="35" y1="78" x2="15" y2="78" stroke="#253043" stroke-width="0.25" /><line class="canvas-mechanical-extension" x1="63" y1="144" x2="15" y2="144" stroke="#253043" stroke-width="0.25" /><line class="canvas-mechanical-dimension" x1="15" y1="78" x2="15" y2="144" stroke="#253043" stroke-width="0.35" marker-start="url(#canvas-mechanical-arrow)" marker-end="url(#canvas-mechanical-arrow)" /><g class="canvas-mechanical-label-group"><rect class="canvas-mechanical-label-backplate" x="10.996" y="107.6" width="8.008" height="6.4" fill="#ffffff" stroke="none" /><text class="canvas-mechanical-label" x="15" y="113" text-anchor="middle" fill="#253043" font-size="4.2" stroke="none">62</text></g><line class="canvas-mechanical-extension" x1="74" y1="166" x2="74" y2="151" stroke="#253043" stroke-width="0.25" /><line class="canvas-mechanical-extension" x1="74" y1="166" x2="126" y2="132" stroke="#253043" stroke-width="0.25" /><path class="canvas-mechanical-dimension" d="M 74 124 A 42 42 0 0 1 109.15272378688891 143.01552675472647" fill="none" stroke="#253043" stroke-width="0.35" marker-start="url(#canvas-mechanical-arrow)" marker-end="url(#canvas-mechanical-arrow)" /><g class="canvas-mechanical-label-group"><rect class="canvas-mechanical-label-backplate" x="93.43503597765029" y="114.86291287420443" width="10.612000000000002" height="6.4" fill="#ffffff" stroke="none" /><text class="canvas-mechanical-label" x="98.74103597765028" y="120.26291287420443" text-anchor="middle" fill="#253043" font-size="4.2" stroke="none">35°</text></g><line class="canvas-mechanical-dimension" x1="40.05887450304572" y1="44.05887450304572" x2="51.37258300203048" y2="55.37258300203048" stroke="#253043" stroke-width="0.35" marker-end="url(#canvas-mechanical-arrow)" /><g class="canvas-mechanical-label-group"><rect class="canvas-mechanical-label-backplate" x="27.84687450304572" y="36.658874503045716" width="10.612000000000002" height="6.4" fill="#ffffff" stroke="none" /><text class="canvas-mechanical-label" x="37.05887450304572" y="42.05887450304572" text-anchor="end" fill="#253043" font-size="4.2" stroke="none">R32</text></g><line class="canvas-mechanical-dimension" x1="59" y1="103.98076211353316" x2="64" y2="95.32050807568878" stroke="#253043" stroke-width="0.35" marker-end="url(#canvas-mechanical-arrow)" /><g class="canvas-mechanical-label-group"><rect class="canvas-mechanical-label-backplate" x="46.788" y="101.58076211353315" width="10.612000000000002" height="6.4" fill="#ffffff" stroke="none" /><text class="canvas-mechanical-label" x="56" y="106.98076211353316" text-anchor="end" fill="#253043" font-size="4.2" stroke="none">R20</text></g><line class="canvas-mechanical-dimension" x1="225.08131000984233" y1="53.47622075924599" x2="216.38261212717717" y2="63.13710349045212" stroke="#253043" stroke-width="0.35" marker-end="url(#canvas-mechanical-arrow)" /><g class="canvas-mechanical-label-group"><rect class="canvas-mechanical-label-backplate" x="226.68131000984232" y="47.076220759245984" width="10.612000000000002" height="6.4" fill="#ffffff" stroke="none" /><text class="canvas-mechanical-label" x="228.08131000984233" y="52.47622075924599" text-anchor="start" fill="#253043" font-size="4.2" stroke="none">R20</text></g><line class="canvas-mechanical-dimension" x1="219.97056274847714" y1="94.97056274847714" x2="210.07106781186548" y2="85.07106781186548" stroke="#253043" stroke-width="0.35" marker-end="url(#canvas-mechanical-arrow)" /><g class="canvas-mechanical-label-group"><rect class="canvas-mechanical-label-backplate" x="221.57056274847713" y="93.57056274847713" width="10.612000000000002" height="6.4" fill="#ffffff" stroke="none" /><text class="canvas-mechanical-label" x="222.97056274847714" y="98.97056274847714" text-anchor="start" fill="#253043" font-size="4.2" stroke="none">R10</text></g><line class="canvas-mechanical-dimension" x1="92.2116570824605" y1="120.81778016906235" x2="87.81173331571765" y2="137.2385192159765" stroke="#253043" stroke-width="0.35" marker-end="url(#canvas-mechanical-arrow)" /><g class="canvas-mechanical-label-group"><rect class="canvas-mechanical-label-backplate" x="92.8116570824605" y="113.41778016906234" width="8.008" height="6.4" fill="#ffffff" stroke="none" /><text class="canvas-mechanical-label" x="94.2116570824605" y="118.81778016906235" text-anchor="start" fill="#253043" font-size="4.2" stroke="none">R7</text></g><line class="canvas-mechanical-dimension" x1="129.82025990867245" y1="110.33422943373142" x2="127.2155372436685" y2="125.10634572891455" stroke="#253043" stroke-width="0.35" marker-end="url(#canvas-mechanical-arrow)" /><g class="canvas-mechanical-label-group"><rect class="canvas-mechanical-label-backplate" x="130.42025990867245" y="102.93422943373142" width="8.008" height="6.4" fill="#ffffff" stroke="none" /><text class="canvas-mechanical-label" x="131.82025990867245" y="108.33422943373142" text-anchor="start" fill="#253043" font-size="4.2" stroke="none">R7</text></g><line class="canvas-mechanical-dimension" x1="150.9081169079632" y1="93.90811690796322" x2="159.3933982822018" y2="102.39339828220179" stroke="#253043" stroke-width="0.35" marker-end="url(#canvas-mechanical-arrow)" /><g class="canvas-mechanical-label-group"><rect class="canvas-mechanical-label-backplate" x="138.69611690796322" y="87.50811690796321" width="10.612000000000002" height="6.4" fill="#ffffff" stroke="none" /><text class="canvas-mechanical-label" x="147.9081169079632" y="92.90811690796322" text-anchor="end" fill="#253043" font-size="4.2" stroke="none">R15</text></g><line class="canvas-mechanical-dimension" x1="141.8438476925141" y1="123.6064588613436" x2="135.05946292326269" y2="127.84581297520924" stroke="#253043" stroke-width="0.35" marker-end="url(#canvas-mechanical-arrow)" /><g class="canvas-mechanical-label-group"><rect class="canvas-mechanical-label-backplate" x="143.44384769251408" y="122.20645886134359" width="10.612000000000002" height="6.4" fill="#ffffff" stroke="none" /><text class="canvas-mechanical-label" x="144.8438476925141" y="127.6064588613436" text-anchor="start" fill="#253043" font-size="4.2" stroke="none">R72</text></g><text class="canvas-mechanical-note" x="218" y="38" fill="#253043" font-size="4.4" font-weight="700" stroke="none">2D EXERCISES</text><text class="canvas-mechanical-note" x="221" y="52" fill="#253043" font-size="4.4" font-weight="700" stroke="none">354</text><text class="canvas-mechanical-note" x="16" y="188" fill="#253043" font-size="4.4" font-weight="700" stroke="none">M39g blockout authored</text><g class="canvas-mechanical-block" data-canvas-mechanical-id="exercise-354-blockout-title-block"><rect x="197" y="165" width="90" height="35" fill="#ffffff" stroke="#253043" stroke-width="0.35" /><text class="canvas-mechanical-block-title" x="200" y="170.5" fill="#253043" font-size="4" font-weight="700" stroke="none">TITLE BLOCK</text><text class="canvas-mechanical-table-header" x="200" y="176.2" fill="#253043" font-size="3.1" font-weight="700" stroke="none">Title</text><text class="canvas-mechanical-table-cell" x="227.6" y="176.4" fill="#253043" font-size="3.6" stroke="none">2D Exercise 354 Blockout</text><line x1="197" y1="177.6" x2="287" y2="177.6" stroke="#253043" stroke-width="0.25" /><text class="canvas-mechanical-table-header" x="200" y="181.79999999999998" fill="#253043" font-size="3.1" font-weight="700" stroke="none">Drawing</text><text class="canvas-mechanical-table-cell" x="227.6" y="182" fill="#253043" font-size="3.6" stroke="none">M39G-354</text><line x1="197" y1="183.2" x2="287" y2="183.2" stroke="#253043" stroke-width="0.25" /><text class="canvas-mechanical-table-header" x="200" y="187.39999999999998" fill="#253043" font-size="3.1" font-weight="700" stroke="none">Rev</text><text class="canvas-mechanical-table-cell" x="227.6" y="187.6" fill="#253043" font-size="3.6" stroke="none">G</text><line x1="197" y1="188.8" x2="287" y2="188.8" stroke="#253043" stroke-width="0.25" /><text class="canvas-mechanical-table-header" x="200" y="193" fill="#253043" font-size="3.1" font-weight="700" stroke="none">Scale</text><text class="canvas-mechanical-table-cell" x="227.6" y="193.20000000000002" fill="#253043" font-size="3.6" stroke="none">Fit to A4</text><line x1="197" y1="194.4" x2="287" y2="194.4" stroke="#253043" stroke-width="0.25" /><text class="canvas-mechanical-table-header" x="200" y="198.6" fill="#253043" font-size="3.1" font-weight="700" stroke="none">Units</text><text class="canvas-mechanical-table-cell" x="227.6" y="198.8" fill="#253043" font-size="3.6" stroke="none">mm</text></g></g>
  </g>
</svg>
