<svg xmlns="http://www.w3.org/2000/svg" width="297mm" height="210mm" viewBox="0 0 297 210">
  <path data-canvas-object-id="m40c-filled-body-profile" data-canvas-kind="path" data-canvas-name="Filled M40c body profile with punched voids" d="M 78 32 A 18 18 0 0 1 114 32 C 114 44 120 58 122 72 C 126 82 138 90 154 96 C 167 100 168 115 156 125 C 144 135 146 149 160 164 C 168 172 166 183 154 186 C 133 191 104 192 81 186 C 64 181 58 169 63 156 C 69 141 66 129 57 120 C 49 111 48 98 54 86 C 59 74 60 60 63 47 C 66 36 72 32 78 32 Z M 87 32 A 9 9 0 0 1 105 32 A 9 9 0 0 1 87 32 Z M 80 108 A 16 16 0 0 1 112 108 A 16 16 0 0 1 80 108 Z M 135 92 A 9 9 0 0 1 153 92 A 9 9 0 0 1 135 92 Z M 96.55161882104622 185.48479488924696 L 141.65686461876984 169.06782800961483 A 12 12 0 0 1 133.448381 146.515205 L 88.34313538123018 162.93217199038517 A 12 12 0 0 1 96.551619 185.484795 Z" fill="#68bfe9" fill-rule="evenodd" stroke="none" stroke-width="0" />
  <path data-canvas-object-id="m40c-outer-profile" data-canvas-kind="path" data-canvas-name="Approximate outer profile" d="M 78 32 A 18 18 0 0 1 114 32 C 114 44 120 58 122 72 C 126 82 138 90 154 96 C 167 100 168 115 156 125 C 144 135 146 149 160 164 C 168 172 166 183 154 186 C 133 191 104 192 81 186 C 64 181 58 169 63 156 C 69 141 66 129 57 120 C 49 111 48 98 54 86 C 59 74 60 60 63 47 C 66 36 72 32 78 32 Z" fill="none" stroke="#1c2430" stroke-width="0.55" />
  <ellipse data-canvas-object-id="m40c-top-hole" data-canvas-kind="ellipse" data-canvas-name="Top hole" cx="96" cy="32" rx="9" ry="9" fill="none" stroke="#1c2430" />
  <ellipse data-canvas-object-id="m40c-main-hole" data-canvas-kind="ellipse" data-canvas-name="Main hole" cx="96" cy="108" rx="16" ry="16" fill="none" stroke="#1c2430" />
  <ellipse data-canvas-object-id="m40c-right-hole" data-canvas-kind="ellipse" data-canvas-name="Right hole" cx="144" cy="92" rx="9" ry="9" fill="none" stroke="#1c2430" />
  <path data-canvas-object-id="m40c-slot" data-canvas-kind="path" data-canvas-name="Angled obround slot" d="M 96.55161882104622 185.48479488924696 L 141.65686461876984 169.06782800961483 A 12 12 0 0 1 133.448381 146.515205 L 88.34313538123018 162.93217199038517 A 12 12 0 0 1 96.551619 185.484795 Z" fill="none" stroke="#1c2430" stroke-width="0.55" />
  <path data-canvas-object-id="m40c-main-centerline-y" data-canvas-kind="path" data-canvas-name="Main vertical centerline" d="M 96 10 L 96 194" fill="none" stroke="#7f8896" stroke-width="0.28" stroke-dasharray="8 4 2 4" />
  <path data-canvas-object-id="m40c-main-centerline-x" data-canvas-kind="path" data-canvas-name="Main horizontal centerline" d="M 38 108 L 182 108" fill="none" stroke="#7f8896" stroke-width="0.28" stroke-dasharray="8 4 2 4" />
  <path data-canvas-object-id="m40c-top-centerline-x" data-canvas-kind="path" data-canvas-name="Top head centerline" d="M 70 32 L 124 32" fill="none" stroke="#7f8896" stroke-width="0.28" stroke-dasharray="8 4 2 4" />
  <path data-canvas-object-id="m40c-right-centerline-x" data-canvas-kind="path" data-canvas-name="Right boss centerline" d="M 126 92 L 164 92" fill="none" stroke="#7f8896" stroke-width="0.28" stroke-dasharray="8 4 2 4" />
  <path data-canvas-object-id="m40c-right-centerline-y" data-canvas-kind="path" data-canvas-name="Right boss centerline" d="M 144 72 L 144 112" fill="none" stroke="#7f8896" stroke-width="0.28" stroke-dasharray="8 4 2 4" />
  <path data-canvas-object-id="m40c-slot-centerline" data-canvas-kind="path" data-canvas-name="Slot centerline" d="M 75.53290992699185 180.36484601967808 L 154.46709007300814 151.63515398032192" fill="none" stroke="#7f8896" stroke-width="0.28" stroke-dasharray="8 4 2 4" />
  <path data-canvas-object-id="m40c-angle-leg-a" data-canvas-kind="path" data-canvas-name="Bottom angle leg A" d="M 96 194 L 96 176" fill="none" stroke="#7f8896" stroke-width="0.28" stroke-dasharray="8 4 2 4" />
  <path data-canvas-object-id="m40c-angle-leg-b" data-canvas-kind="path" data-canvas-name="Bottom angle leg B" d="M 96 194 L 159 165" fill="none" stroke="#7f8896" stroke-width="0.28" stroke-dasharray="8 4 2 4" />
  <g class="canvas-mechanical-overlay" data-canvas-object-id="m40c-mechanical-sidecar" data-canvas-kind="mechanicalAnnotationSidecar" data-canvas-name="M40c mechanical annotations">
    <g class="canvas-mechanical-annotation-layer" font-family="Arial, Helvetica, sans-serif" fill="none" stroke="#253043" stroke-linecap="square" stroke-linejoin="miter"><defs><marker id="canvas-mechanical-arrow" markerWidth="5" markerHeight="5" refX="2.5" refY="2.5" orient="auto-start-reverse"><path d="M 5 2.5 L 0 0 L 0 5 Z" fill="#253043" stroke="none" /></marker></defs><g class="canvas-mechanical-sheet-frame" data-canvas-mechanical-sheet="A4-landscape"><rect class="canvas-mechanical-sheet-boundary" x="0" y="0" width="297" height="210" fill="none" stroke="#253043" stroke-width="0.35" /><rect class="canvas-mechanical-sheet-margin" x="10" y="10" width="277" height="190" fill="none" stroke="#7f8896" stroke-width="0.25" stroke-dasharray="2 1.4" /><rect class="canvas-mechanical-sheet-content" x="10" y="10" width="277" height="190" fill="none" stroke="#c7ccd4" stroke-width="0.25" /></g><line class="canvas-mechanical-extension" x1="96" y1="32" x2="52" y2="32" stroke="#253043" stroke-width="0.25" /><line class="canvas-mechanical-extension" x1="96" y1="108" x2="52" y2="108" stroke="#253043" stroke-width="0.25" /><line class="canvas-mechanical-dimension" x1="52" y1="32" x2="52" y2="108" stroke="#253043" stroke-width="0.35" marker-start="url(#canvas-mechanical-arrow)" marker-end="url(#canvas-mechanical-arrow)" /><g class="canvas-mechanical-label-group"><rect class="canvas-mechanical-label-backplate" x="46.694" y="60.599999999999994" width="10.612000000000002" height="6.4" fill="#ffffff" stroke="none" /><text class="canvas-mechanical-label" x="52" y="66" text-anchor="middle" fill="#253043" font-size="4.2" stroke="none">176</text></g><line class="canvas-mechanical-extension" x1="96" y1="108" x2="64" y2="108" stroke="#253043" stroke-width="0.25" /><line class="canvas-mechanical-extension" x1="115" y1="166" x2="64" y2="166" stroke="#253043" stroke-width="0.25" /><line class="canvas-mechanical-dimension" x1="64" y1="108" x2="64" y2="166" stroke="#253043" stroke-width="0.35" marker-start="url(#canvas-mechanical-arrow)" marker-end="url(#canvas-mechanical-arrow)" /><g class="canvas-mechanical-label-group"><rect class="canvas-mechanical-label-backplate" x="58.694" y="127.60000000000001" width="10.612000000000002" height="6.4" fill="#ffffff" stroke="none" /><text class="canvas-mechanical-label" x="64" y="133" text-anchor="middle" fill="#253043" font-size="4.2" stroke="none">120</text></g><line class="canvas-mechanical-extension" x1="96" y1="108" x2="96" y2="124" stroke="#253043" stroke-width="0.25" /><line class="canvas-mechanical-extension" x1="144" y1="108" x2="144" y2="124" stroke="#253043" stroke-width="0.25" /><line class="canvas-mechanical-dimension" x1="96" y1="124" x2="144" y2="124" stroke="#253043" stroke-width="0.35" marker-start="url(#canvas-mechanical-arrow)" marker-end="url(#canvas-mechanical-arrow)" /><g class="canvas-mechanical-label-group"><rect class="canvas-mechanical-label-backplate" x="115.996" y="114.6" width="8.008" height="6.4" fill="#ffffff" stroke="none" /><text class="canvas-mechanical-label" x="120" y="120" text-anchor="middle" fill="#253043" font-size="4.2" stroke="none">96</text></g><line class="canvas-mechanical-extension" x1="144" y1="108" x2="154" y2="108" stroke="#253043" stroke-width="0.25" /><line class="canvas-mechanical-extension" x1="144" y1="92" x2="154" y2="92" stroke="#253043" stroke-width="0.25" /><line class="canvas-mechanical-dimension" x1="154" y1="108" x2="154" y2="92" stroke="#253043" stroke-width="0.35" marker-start="url(#canvas-mechanical-arrow)" marker-end="url(#canvas-mechanical-arrow)" /><g class="canvas-mechanical-label-group"><rect class="canvas-mechanical-label-backplate" x="149.996" y="90.6" width="8.008" height="6.4" fill="#ffffff" stroke="none" /><text class="canvas-mechanical-label" x="154" y="96" text-anchor="middle" fill="#253043" font-size="4.2" stroke="none">38</text></g><line class="canvas-mechanical-dimension" x1="56.1224573703874" y1="126.59520351659077" x2="72.4359975370471" y2="118.98807480525818" stroke="#253043" stroke-width="0.35" marker-end="url(#canvas-mechanical-arrow)" /><circle class="canvas-mechanical-center-mark" cx="96" cy="108" r="1.1" fill="#253043" stroke="none" /><g class="canvas-mechanical-label-group"><rect class="canvas-mechanical-label-backplate" x="44.9104573703874" y="119.19520351659077" width="10.612000000000002" height="6.4" fill="#ffffff" stroke="none" /><text class="canvas-mechanical-label" x="54.1224573703874" y="124.59520351659077" text-anchor="end" fill="#253043" font-size="4.2" stroke="none">Ø88</text></g><line class="canvas-mechanical-dimension" x1="124.83363526931849" y1="126.01725498392896" x2="109.56876953850282" y2="116.47870822773127" stroke="#253043" stroke-width="0.35" marker-end="url(#canvas-mechanical-arrow)" /><circle class="canvas-mechanical-center-mark" cx="96" cy="108" r="1.1" fill="#253043" stroke="none" /><g class="canvas-mechanical-label-group"><rect class="canvas-mechanical-label-backplate" x="125.43363526931849" y="118.61725498392896" width="10.612000000000002" height="6.4" fill="#ffffff" stroke="none" /><text class="canvas-mechanical-label" x="126.83363526931849" y="124.01725498392896" text-anchor="start" fill="#253043" font-size="4.2" stroke="none">Ø56</text></g><line class="canvas-mechanical-dimension" x1="116.64875170863766" y1="2.510526405596295" x2="106.32437585431883" y2="17.255263202798147" stroke="#253043" stroke-width="0.35" marker-end="url(#canvas-mechanical-arrow)" /><g class="canvas-mechanical-label-group"><rect class="canvas-mechanical-label-backplate" x="118.24875170863766" y="-4.8894735944037055" width="10.612000000000002" height="6.4" fill="#ffffff" stroke="none" /><text class="canvas-mechanical-label" x="119.64875170863766" y="0.5105264055962948" text-anchor="start" fill="#253043" font-size="4.2" stroke="none">R44</text></g><line class="canvas-mechanical-dimension" x1="75.3168000357876" y1="14.644734538463435" x2="89.1056000119292" y2="26.214911512821146" stroke="#253043" stroke-width="0.35" marker-end="url(#canvas-mechanical-arrow)" /><g class="canvas-mechanical-label-group"><rect class="canvas-mechanical-label-backplate" x="63.10480003578759" y="7.244734538463436" width="10.612000000000002" height="6.4" fill="#ffffff" stroke="none" /><text class="canvas-mechanical-label" x="72.3168000357876" y="12.644734538463435" text-anchor="end" fill="#253043" font-size="4.2" stroke="none">R23</text></g><line class="canvas-mechanical-dimension" x1="179.11799514834337" y1="24.190762018342735" x2="157.54693803716336" y2="34.71166954128059" stroke="#253043" stroke-width="0.35" marker-end="url(#canvas-mechanical-arrow)" /><g class="canvas-mechanical-label-group"><rect class="canvas-mechanical-label-backplate" x="179.71799514834336" y="16.790762018342736" width="10.612000000000002" height="6.4" fill="#ffffff" stroke="none" /><text class="canvas-mechanical-label" x="181.11799514834337" y="22.190762018342735" text-anchor="start" fill="#253043" font-size="4.2" stroke="none">R88</text></g><line class="canvas-mechanical-dimension" x1="174.31088913245534" y1="74.5" x2="158.72243186433545" y2="83.5" stroke="#253043" stroke-width="0.35" marker-end="url(#canvas-mechanical-arrow)" /><g class="canvas-mechanical-label-group"><rect class="canvas-mechanical-label-backplate" x="175.91088913245534" y="67.1" width="10.612000000000002" height="6.4" fill="#ffffff" stroke="none" /><text class="canvas-mechanical-label" x="177.31088913245534" y="72.5" text-anchor="start" fill="#253043" font-size="4.2" stroke="none">R40</text></g><line class="canvas-mechanical-dimension" x1="173.95663741433208" y1="138.20626063243316" x2="159.82947592858926" y2="130.6947156278589" stroke="#253043" stroke-width="0.35" marker-end="url(#canvas-mechanical-arrow)" /><g class="canvas-mechanical-label-group"><rect class="canvas-mechanical-label-backplate" x="174.55663741433207" y="135.80626063243318" width="10.612000000000002" height="6.4" fill="#ffffff" stroke="none" /><text class="canvas-mechanical-label" x="175.95663741433208" y="141.20626063243316" text-anchor="start" fill="#253043" font-size="4.2" stroke="none">R18</text></g><line class="canvas-mechanical-dimension" x1="169.5328672995954" y1="153.31969115391684" x2="145.7664336497977" y2="156.65984557695842" stroke="#253043" stroke-width="0.35" marker-end="url(#canvas-mechanical-arrow)" /><g class="canvas-mechanical-label-group"><rect class="canvas-mechanical-label-backplate" x="171.1328672995954" y="146.91969115391686" width="10.612000000000002" height="6.4" fill="#ffffff" stroke="none" /><text class="canvas-mechanical-label" x="172.5328672995954" y="152.31969115391684" text-anchor="start" fill="#253043" font-size="4.2" stroke="none">R44</text></g><line class="canvas-mechanical-dimension" x1="168.8533461223436" y1="164.44469066635224" x2="149.29039410766748" y2="160.28645684999705" stroke="#253043" stroke-width="0.35" marker-end="url(#canvas-mechanical-arrow)" /><g class="canvas-mechanical-label-group"><rect class="canvas-mechanical-label-backplate" x="170.4533461223436" y="159.04469066635227" width="10.612000000000002" height="6.4" fill="#ffffff" stroke="none" /><text class="canvas-mechanical-label" x="171.8533461223436" y="164.44469066635224" text-anchor="start" fill="#253043" font-size="4.2" stroke="none">R22</text></g><line class="canvas-mechanical-extension" x1="96" y1="194" x2="96" y2="176" stroke="#253043" stroke-width="0.25" /><line class="canvas-mechanical-extension" x1="96" y1="194" x2="159" y2="165" stroke="#253043" stroke-width="0.25" /><path class="canvas-mechanical-dimension" d="M 96 170 A 24 24 0 0 1 117.80114246753627 183.96455346732458" fill="none" stroke="#253043" stroke-width="0.35" marker-start="url(#canvas-mechanical-arrow)" marker-end="url(#canvas-mechanical-arrow)" /><g class="canvas-mechanical-label-group"><rect class="canvas-mechanical-label-backplate" x="107.95408325500173" y="161.65395156928557" width="10.612000000000002" height="6.4" fill="#ffffff" stroke="none" /><text class="canvas-mechanical-label" x="113.26008325500173" y="167.05395156928554" text-anchor="middle" fill="#253043" font-size="4.2" stroke="none">40°</text></g><text class="canvas-mechanical-note" x="198" y="24" fill="#253043" font-size="4.4" font-weight="700" stroke="none">Source: single reference image</text><text class="canvas-mechanical-note" x="18" y="188" fill="#253043" font-size="4.4" font-weight="700" stroke="none">M40c guide/blockout dogfood</text><text class="canvas-mechanical-note" x="18" y="196" fill="#253043" font-size="4.4" font-weight="700" stroke="none">Approximate tangent chain; topology-first fill</text><g class="canvas-mechanical-block" data-canvas-mechanical-id="m40c-title-block"><rect x="195" y="166" width="92" height="34" fill="#ffffff" stroke="#253043" stroke-width="0.35" /><text class="canvas-mechanical-block-title" x="198" y="171.5" fill="#253043" font-size="4" font-weight="700" stroke="none">TITLE BLOCK</text><text class="canvas-mechanical-table-header" x="198" y="177.2" fill="#253043" font-size="3.1" font-weight="700" stroke="none">Title</text><text class="canvas-mechanical-table-cell" x="226.28" y="177.4" fill="#253043" font-size="3.6" stroke="none">M40c Guide/Blockout Dogfood</text><line x1="195" y1="178.4" x2="287" y2="178.4" stroke="#253043" stroke-width="0.25" /><text class="canvas-mechanical-table-header" x="198" y="182.6" fill="#253043" font-size="3.1" font-weight="700" stroke="none">Drawing</text><text class="canvas-mechanical-table-cell" x="226.28" y="182.8" fill="#253043" font-size="3.6" stroke="none">M40C-DOG-01</text><line x1="195" y1="183.8" x2="287" y2="183.8" stroke="#253043" stroke-width="0.25" /><text class="canvas-mechanical-table-header" x="198" y="188" fill="#253043" font-size="3.1" font-weight="700" stroke="none">Rev</text><text class="canvas-mechanical-table-cell" x="226.28" y="188.20000000000002" fill="#253043" font-size="3.6" stroke="none">C</text><line x1="195" y1="189.2" x2="287" y2="189.2" stroke="#253043" stroke-width="0.25" /><text class="canvas-mechanical-table-header" x="198" y="193.39999999999998" fill="#253043" font-size="3.1" font-weight="700" stroke="none">Scale</text><text class="canvas-mechanical-table-cell" x="226.28" y="193.6" fill="#253043" font-size="3.6" stroke="none">Fit to A4</text><line x1="195" y1="194.6" x2="287" y2="194.6" stroke="#253043" stroke-width="0.25" /><text class="canvas-mechanical-table-header" x="198" y="198.79999999999998" fill="#253043" font-size="3.1" font-weight="700" stroke="none">Units</text><text class="canvas-mechanical-table-cell" x="226.28" y="199" fill="#253043" font-size="3.6" stroke="none">mm</text></g></g>
  </g>
</svg>
