<svg xmlns="http://www.w3.org/2000/svg" width="297" height="210" viewBox="0 0 297 210">
  <path data-canvas-object-id="exercise-354-global-bounding-box" data-canvas-kind="path" data-canvas-name="global bounding" d="M 35 32 H 223 V 166 H 35 Z" fill="none" stroke="#f04a24" stroke-width="0.5" />
  <path data-canvas-object-id="exercise-354-global-datum-horizontal" data-canvas-kind="path" data-canvas-name="Main horizontal datum through bore and slot" d="M 35 78 L 223 78" fill="none" stroke="#f04a24" stroke-width="0.35" stroke-dasharray="8 4 2 4" />
  <path data-canvas-object-id="exercise-354-global-datum-bore-vertical" data-canvas-kind="path" data-canvas-name="Main vertical datum through large bore" d="M 74 32 L 74 166" fill="none" stroke="#f04a24" stroke-width="0.35" stroke-dasharray="8 4 2 4" />
  <path data-canvas-object-id="exercise-354-global-datum-slot-left" data-canvas-kind="path" data-canvas-name="Slot left extent datum" d="M 159 60 L 159 96" fill="none" stroke="#f04a24" stroke-width="0.35" stroke-dasharray="8 4 2 4" />
  <path data-canvas-object-id="exercise-354-global-datum-slot-right" data-canvas-kind="path" data-canvas-name="Slot right extent datum" d="M 213 60 L 213 96" fill="none" stroke="#f04a24" stroke-width="0.35" stroke-dasharray="8 4 2 4" />
  <path data-canvas-object-id="exercise-354-global-datum-lower-extent" data-canvas-kind="path" data-canvas-name="Lower lobe extent datum" d="M 58 166 L 172 166" fill="none" stroke="#f04a24" stroke-width="0.35" stroke-dasharray="8 4 2 4" />
  <path data-canvas-object-id="exercise-354-global-lower-arc-cue" data-canvas-kind="path" data-canvas-name="Lower construction arc cue" d="M 75 152 A 92.875674 92.875674 0 0 0 151 114" fill="none" stroke="#f04a24" stroke-width="0.45" stroke-dasharray="3 3" />
  <path data-canvas-object-id="exercise-354-global-bore-center" data-canvas-kind="path" data-canvas-name="Large bore center mark" d="M 68 78 L 80 78 M 74 72 L 74 84" fill="none" stroke="#f04a24" stroke-width="0.35" />
  <path data-canvas-object-id="exercise-354-global-left-small-hole-center" data-canvas-kind="path" data-canvas-name="Left small-hole center cue" d="M 80 144 L 92 144 M 86 138 L 86 150" fill="none" stroke="#f04a24" stroke-width="0.35" />
  <path data-canvas-object-id="exercise-354-global-right-small-hole-center" data-canvas-kind="path" data-canvas-name="Right small-hole center cue" d="M 120 132 L 132 132 M 126 126 L 126 138" fill="none" stroke="#f04a24" stroke-width="0.35" />
  <path data-canvas-object-id="exercise-354-feature-box-boss" data-canvas-kind="path" data-canvas-name="large boss blockout" d="M 35 38 H 113 V 118 H 35 Z" fill="none" stroke="#00d92f" stroke-width="0.5" />
  <path data-canvas-object-id="exercise-354-feature-box-large-hole" data-canvas-kind="path" data-canvas-name="large hole blockout" d="M 54 58 H 94 V 98 H 54 Z" fill="none" stroke="#00d92f" stroke-width="0.5" />
  <path data-canvas-object-id="exercise-354-feature-box-right-arm" data-canvas-kind="path" data-canvas-name="right arm blockout" d="M 112 58 H 223 V 98 H 112 Z" fill="none" stroke="#00d92f" stroke-width="0.5" />
  <path data-canvas-object-id="exercise-354-feature-box-slot" data-canvas-kind="path" data-canvas-name="slot blockout" d="M 159 68 H 213 V 88 H 159 Z" fill="none" stroke="#00d92f" stroke-width="0.5" />
  <path data-canvas-object-id="exercise-354-feature-box-lower-lobe" data-canvas-kind="path" data-canvas-name="lower lobe blockout" d="M 58 98 H 172 V 166 H 58 Z" fill="none" stroke="#00d92f" stroke-width="0.5" />
  <path data-canvas-object-id="exercise-354-feature-box-left-small-hole" data-canvas-kind="path" data-canvas-name="small left hole blockout" d="M 79 137 H 93 V 151 H 79 Z" fill="none" stroke="#00d92f" stroke-width="0.5" />
  <path data-canvas-object-id="exercise-354-feature-box-right-small-hole" data-canvas-kind="path" data-canvas-name="small right hole blockout" d="M 119 125 H 133 V 139 H 119 Z" fill="none" stroke="#00d92f" stroke-width="0.5" />
  <path data-canvas-object-id="exercise-354-feature-box-inside-relief" data-canvas-kind="path" data-canvas-name="inside relief cue" d="M 156 98 H 174 V 116 H 156 Z" fill="none" stroke="#00d92f" stroke-width="0.5" />
  <path data-canvas-object-id="exercise-354-feature-large-hole-center" data-canvas-kind="path" data-canvas-name="Large hole blockout center" d="M 68 78 L 80 78 M 74 72 L 74 84" fill="none" stroke="#f04a24" stroke-width="0.35" />
  <path data-canvas-object-id="exercise-354-feature-slot-left-center" data-canvas-kind="path" data-canvas-name="Slot left radius center" d="M 163 78 L 175 78 M 169 72 L 169 84" fill="none" stroke="#f04a24" stroke-width="0.35" />
  <path data-canvas-object-id="exercise-354-feature-slot-right-center" data-canvas-kind="path" data-canvas-name="Slot right radius center" d="M 197 78 L 209 78 M 203 72 L 203 84" fill="none" stroke="#f04a24" stroke-width="0.35" />
  <path data-canvas-object-id="exercise-354-feature-left-small-hole-center" data-canvas-kind="path" data-canvas-name="Left small-hole center" d="M 80 144 L 92 144 M 86 138 L 86 150" fill="none" stroke="#f04a24" stroke-width="0.35" />
  <path data-canvas-object-id="exercise-354-feature-right-small-hole-center" data-canvas-kind="path" data-canvas-name="Right small-hole center" d="M 120 132 L 132 132 M 126 126 L 126 138" fill="none" stroke="#f04a24" stroke-width="0.35" />
</svg>
