<svg xmlns="http://www.w3.org/2000/svg" width="297mm" height="210mm" viewBox="0 0 297 210">
  <path data-canvas-object-id="exercise-354-filled-body-profile" data-canvas-kind="path" data-canvas-name="Filled body profile with semantic voids" d="M 74 38 C 52 38 35 56 35 78 C 35 95 45 107 58 114 C 69 120 71 133 63 145 C 56 156 63 167 76 164 C 103 161 132 151 148 126 C 155 105 160 98 172 98 L 204 98 A 20 20 0 0 0 204 58 L 126 58 A 30.438463 30.438463 0 0 1 98 51 C 94 43 85 38 74 38 Z M 54 78 A 20 20 0 0 1 94 78 A 20 20 0 0 1 54 78 Z M 79 144 A 7 7 0 0 1 93 144 A 7 7 0 0 1 79 144 Z M 119 132 A 7 7 0 0 1 133 132 A 7 7 0 0 1 119 132 Z M 159 68 L 202 68 A 10 10 0 0 1 202 88 L 159 88 A 10 10 0 0 1 159 68 Z" fill="#68bfe9" fill-rule="evenodd" stroke="none" stroke-width="0" />
  <path data-canvas-object-id="exercise-354-outer-profile" data-canvas-kind="path" data-canvas-name="Approximate outer profile" d="M 74 38 C 52 38 35 56 35 78 C 35 95 45 107 58 114 C 69 120 71 133 63 145 C 56 156 63 167 76 164 C 103 161 132 151 148 126 C 155 105 160 98 172 98 L 204 98 A 20 20 0 0 0 204 58 L 126 58 A 30.438463 30.438463 0 0 1 98 51 C 94 43 85 38 74 38 Z" fill="none" stroke="#1c2430" stroke-width="0.55" />
  <ellipse data-canvas-object-id="exercise-354-inner-hole" data-canvas-kind="ellipse" data-canvas-name="Inner circular hole" cx="74" cy="78" rx="20" ry="20" fill="none" stroke="#1c2430" />
  <path data-canvas-object-id="exercise-354-rounded-slot" data-canvas-kind="path" data-canvas-name="Rounded slot" d="M 159 68 L 202 68 A 10 10 0 0 1 202 88 L 159 88 A 10 10 0 0 1 159 68 Z" fill="none" stroke="#1c2430" stroke-width="0.55" />
  <ellipse data-canvas-object-id="exercise-354-lower-hole" data-canvas-kind="ellipse" data-canvas-name="Lower small hole" cx="86" cy="144" rx="7" ry="7" fill="none" stroke="#1c2430" />
  <ellipse data-canvas-object-id="exercise-354-upper-hole" data-canvas-kind="ellipse" data-canvas-name="Upper small hole" cx="126" cy="132" rx="7" ry="7" fill="none" stroke="#1c2430" />
  <path data-canvas-object-id="exercise-354-boss-centerline-x" data-canvas-kind="path" data-canvas-name="Boss horizontal centerline" d="M 26 78 L 214 78" fill="none" stroke="#7f8896" stroke-width="0.25" stroke-dasharray="8 4 2 4" />
  <path data-canvas-object-id="exercise-354-boss-centerline-y" data-canvas-kind="path" data-canvas-name="Boss vertical centerline" d="M 74 20 L 74 176" fill="none" stroke="#7f8896" stroke-width="0.25" stroke-dasharray="8 4 2 4" />
  <path data-canvas-object-id="exercise-354-slot-centerline" data-canvas-kind="path" data-canvas-name="Slot centerline" d="M 145 78 L 216 78" fill="none" stroke="#7f8896" stroke-width="0.25" stroke-dasharray="8 4 2 4" />
  <path data-canvas-object-id="exercise-354-small-hole-axis" data-canvas-kind="path" data-canvas-name="Small hole construction axis" d="M 75 148 L 137 128" fill="none" stroke="#7f8896" stroke-width="0.25" stroke-dasharray="8 4 2 4" />
  <path data-canvas-object-id="exercise-354-angle-leg-a" data-canvas-kind="path" data-canvas-name="Angle dimension construction leg A" d="M 74 166 L 74 151" fill="none" stroke="#7f8896" stroke-width="0.25" stroke-dasharray="8 4 2 4" />
  <path data-canvas-object-id="exercise-354-angle-leg-b" data-canvas-kind="path" data-canvas-name="Angle dimension construction leg B" d="M 74 166 L 122 132" fill="none" stroke="#7f8896" stroke-width="0.25" stroke-dasharray="8 4 2 4" />
  <g class="canvas-mechanical-overlay" data-canvas-object-id="exercise-354-mechanical-annotations" data-canvas-kind="mechanicalAnnotationSidecar" data-canvas-name="Exercise 354 mechanical annotations">
    <g class="canvas-mechanical-annotation-layer" font-family="Arial, Helvetica, sans-serif" fill="none" stroke="#253043" stroke-linecap="square" stroke-linejoin="miter"><defs><marker id="canvas-mechanical-arrow" markerWidth="5" markerHeight="5" refX="2.5" refY="2.5" orient="auto-start-reverse"><path d="M 5 2.5 L 0 0 L 0 5 Z" fill="#253043" stroke="none" /></marker></defs><g class="canvas-mechanical-sheet-frame" data-canvas-mechanical-sheet="A4-landscape"><rect class="canvas-mechanical-sheet-boundary" x="0" y="0" width="297" height="210" fill="none" stroke="#253043" stroke-width="0.35" /><rect class="canvas-mechanical-sheet-margin" x="10" y="10" width="277" height="190" fill="none" stroke="#7f8896" stroke-width="0.25" stroke-dasharray="2 1.4" /><rect class="canvas-mechanical-sheet-content" x="10" y="10" width="277" height="190" fill="none" stroke="#c7ccd4" stroke-width="0.25" /></g><line class="canvas-mechanical-extension" x1="74" y1="38" x2="74" y2="16" stroke="#253043" stroke-width="0.25" /><line class="canvas-mechanical-extension" x1="204" y1="38" x2="204" y2="16" stroke="#253043" stroke-width="0.25" /><line class="canvas-mechanical-dimension" x1="74" y1="16" x2="204" y2="16" stroke="#253043" stroke-width="0.35" marker-start="url(#canvas-mechanical-arrow)" marker-end="url(#canvas-mechanical-arrow)" /><g class="canvas-mechanical-label-group"><rect class="canvas-mechanical-label-backplate" x="133.694" y="6.6" width="10.612000000000002" height="6.4" fill="#ffffff" stroke="none" /><text class="canvas-mechanical-label" x="139" y="12" text-anchor="middle" fill="#253043" font-size="4.2" stroke="none">100</text></g><line class="canvas-mechanical-extension" x1="170" y1="68" x2="170" y2="51" stroke="#253043" stroke-width="0.25" /><line class="canvas-mechanical-extension" x1="204" y1="68" x2="204" y2="51" stroke="#253043" stroke-width="0.25" /><line class="canvas-mechanical-dimension" x1="170" y1="51" x2="204" y2="51" stroke="#253043" stroke-width="0.35" marker-start="url(#canvas-mechanical-arrow)" marker-end="url(#canvas-mechanical-arrow)" /><g class="canvas-mechanical-label-group"><rect class="canvas-mechanical-label-backplate" x="182.996" y="41.599999999999994" width="8.008" height="6.4" fill="#ffffff" stroke="none" /><text class="canvas-mechanical-label" x="187" y="47" text-anchor="middle" fill="#253043" font-size="4.2" stroke="none">30</text></g><line class="canvas-mechanical-extension" x1="35" y1="78" x2="15" y2="78" stroke="#253043" stroke-width="0.25" /><line class="canvas-mechanical-extension" x1="63" y1="145" x2="15" y2="145" stroke="#253043" stroke-width="0.25" /><line class="canvas-mechanical-dimension" x1="15" y1="78" x2="15" y2="145" stroke="#253043" stroke-width="0.35" marker-start="url(#canvas-mechanical-arrow)" marker-end="url(#canvas-mechanical-arrow)" /><g class="canvas-mechanical-label-group"><rect class="canvas-mechanical-label-backplate" x="10.996" y="108.1" width="8.008" height="6.4" fill="#ffffff" stroke="none" /><text class="canvas-mechanical-label" x="15" y="113.5" text-anchor="middle" fill="#253043" font-size="4.2" stroke="none">62</text></g><line class="canvas-mechanical-extension" x1="74" y1="166" x2="74" y2="180" stroke="#253043" stroke-width="0.25" /><line class="canvas-mechanical-extension" x1="86" y1="164" x2="86" y2="180" stroke="#253043" stroke-width="0.25" /><line class="canvas-mechanical-dimension" x1="74" y1="180" x2="86" y2="180" stroke="#253043" stroke-width="0.35" marker-start="url(#canvas-mechanical-arrow)" marker-end="url(#canvas-mechanical-arrow)" /><g class="canvas-mechanical-label-group"><rect class="canvas-mechanical-label-backplate" x="75.996" y="182.60000000000002" width="8.008" height="6.4" fill="#ffffff" stroke="none" /><text class="canvas-mechanical-label" x="80" y="188" text-anchor="middle" fill="#253043" font-size="4.2" stroke="none">10</text></g><line class="canvas-mechanical-extension" x1="86" y1="144" x2="89.44817462679615" y2="155.49391542265383" stroke="#253043" stroke-width="0.25" /><line class="canvas-mechanical-extension" x1="126" y1="132" x2="129.44817462679615" y2="143.49391542265383" stroke="#253043" stroke-width="0.25" /><line class="canvas-mechanical-dimension" x1="89.44817462679615" y1="155.49391542265383" x2="129.44817462679615" y2="143.49391542265383" stroke="#253043" stroke-width="0.35" marker-start="url(#canvas-mechanical-arrow)" marker-end="url(#canvas-mechanical-arrow)" /><g class="canvas-mechanical-label-group" transform="rotate(-16.69924423399362 109.44817462679615 144.49391542265383)"><rect class="canvas-mechanical-label-backplate" x="105.44417462679614" y="139.09391542265385" width="8.008" height="6.4" fill="#ffffff" stroke="none" /><text class="canvas-mechanical-label" x="109.44817462679615" y="144.49391542265383" text-anchor="middle" fill="#253043" font-size="4.2" stroke="none">42</text></g><line class="canvas-mechanical-extension" x1="74" y1="166" x2="74" y2="151" stroke="#253043" stroke-width="0.25" /><line class="canvas-mechanical-extension" x1="74" y1="166" x2="122" y2="132" stroke="#253043" stroke-width="0.25" /><path class="canvas-mechanical-dimension" d="M 74 124 A 42 42 0 0 1 108.27302820626952 141.72327168722575" fill="none" stroke="#253043" stroke-width="0.35" marker-start="url(#canvas-mechanical-arrow)" marker-end="url(#canvas-mechanical-arrow)" /><g class="canvas-mechanical-label-group"><rect class="canvas-mechanical-label-backplate" x="92.57957211508617" y="114.41039678959108" width="10.612000000000002" height="6.4" fill="#ffffff" stroke="none" /><text class="canvas-mechanical-label" x="97.88557211508616" y="119.81039678959108" text-anchor="middle" fill="#253043" font-size="4.2" stroke="none">35°</text></g><line class="canvas-mechanical-dimension" x1="40.05887450304572" y1="44.05887450304572" x2="51.37258300203048" y2="55.37258300203048" stroke="#253043" stroke-width="0.35" marker-end="url(#canvas-mechanical-arrow)" /><g class="canvas-mechanical-label-group"><rect class="canvas-mechanical-label-backplate" x="27.84687450304572" y="36.658874503045716" width="10.612000000000002" height="6.4" fill="#ffffff" stroke="none" /><text class="canvas-mechanical-label" x="37.05887450304572" y="42.05887450304572" text-anchor="end" fill="#253043" font-size="4.2" stroke="none">R32</text></g><line class="canvas-mechanical-dimension" x1="59" y1="103.98076211353316" x2="64" y2="95.32050807568878" stroke="#253043" stroke-width="0.35" marker-end="url(#canvas-mechanical-arrow)" /><g class="canvas-mechanical-label-group"><rect class="canvas-mechanical-label-backplate" x="46.788" y="101.58076211353315" width="10.612000000000002" height="6.4" fill="#ffffff" stroke="none" /><text class="canvas-mechanical-label" x="56" y="106.98076211353316" text-anchor="end" fill="#253043" font-size="4.2" stroke="none">R20</text></g><line class="canvas-mechanical-dimension" x1="112.71226924187727" y1="78.8954302006916" x2="116.72949016875158" y2="66.53169548885461" stroke="#253043" stroke-width="0.35" marker-end="url(#canvas-mechanical-arrow)" /><g class="canvas-mechanical-label-group"><rect class="canvas-mechanical-label-backplate" x="100.50026924187728" y="72.4954302006916" width="10.612000000000002" height="6.4" fill="#ffffff" stroke="none" /><text class="canvas-mechanical-label" x="109.71226924187727" y="77.8954302006916" text-anchor="end" fill="#253043" font-size="4.2" stroke="none">R30</text></g><line class="canvas-mechanical-dimension" x1="226.08131000984233" y1="53.47622075924599" x2="217.38261212717717" y2="63.13710349045212" stroke="#253043" stroke-width="0.35" marker-end="url(#canvas-mechanical-arrow)" /><g class="canvas-mechanical-label-group"><rect class="canvas-mechanical-label-backplate" x="227.68131000984232" y="47.076220759245984" width="10.612000000000002" height="6.4" fill="#ffffff" stroke="none" /><text class="canvas-mechanical-label" x="229.08131000984233" y="52.47622075924599" text-anchor="start" fill="#253043" font-size="4.2" stroke="none">R20</text></g><line class="canvas-mechanical-dimension" x1="217.55634918610403" y1="93.55634918610404" x2="207.65685424949237" y2="83.65685424949238" stroke="#253043" stroke-width="0.35" marker-end="url(#canvas-mechanical-arrow)" /><g class="canvas-mechanical-label-group"><rect class="canvas-mechanical-label-backplate" x="219.15634918610402" y="92.15634918610404" width="8.008" height="6.4" fill="#ffffff" stroke="none" /><text class="canvas-mechanical-label" x="220.55634918610403" y="97.55634918610404" text-anchor="start" fill="#253043" font-size="4.2" stroke="none">R8</text></g><line class="canvas-mechanical-dimension" x1="92.2116570824605" y1="120.81778016906235" x2="87.81173331571765" y2="137.2385192159765" stroke="#253043" stroke-width="0.35" marker-end="url(#canvas-mechanical-arrow)" /><g class="canvas-mechanical-label-group"><rect class="canvas-mechanical-label-backplate" x="92.8116570824605" y="113.41778016906234" width="8.008" height="6.4" fill="#ffffff" stroke="none" /><text class="canvas-mechanical-label" x="94.2116570824605" y="118.81778016906235" text-anchor="start" fill="#253043" font-size="4.2" stroke="none">R7</text></g><line class="canvas-mechanical-dimension" x1="129.82025990867245" y1="110.33422943373142" x2="127.2155372436685" y2="125.10634572891455" stroke="#253043" stroke-width="0.35" marker-end="url(#canvas-mechanical-arrow)" /><g class="canvas-mechanical-label-group"><rect class="canvas-mechanical-label-backplate" x="130.42025990867245" y="102.93422943373142" width="8.008" height="6.4" fill="#ffffff" stroke="none" /><text class="canvas-mechanical-label" x="131.82025990867245" y="108.33422943373142" text-anchor="start" fill="#253043" font-size="4.2" stroke="none">R7</text></g><line class="canvas-mechanical-dimension" x1="150.9081169079632" y1="103.90811690796322" x2="159.3933982822018" y2="112.39339828220179" stroke="#253043" stroke-width="0.35" marker-end="url(#canvas-mechanical-arrow)" /><g class="canvas-mechanical-label-group"><rect class="canvas-mechanical-label-backplate" x="138.69611690796322" y="97.50811690796321" width="10.612000000000002" height="6.4" fill="#ffffff" stroke="none" /><text class="canvas-mechanical-label" x="147.9081169079632" y="102.90811690796322" text-anchor="end" fill="#253043" font-size="4.2" stroke="none">R15</text></g><line class="canvas-mechanical-dimension" x1="141.8438476925141" y1="123.6064588613436" x2="135.05946292326269" y2="127.84581297520924" stroke="#253043" stroke-width="0.35" marker-end="url(#canvas-mechanical-arrow)" /><g class="canvas-mechanical-label-group"><rect class="canvas-mechanical-label-backplate" x="143.44384769251408" y="122.20645886134359" width="10.612000000000002" height="6.4" fill="#ffffff" stroke="none" /><text class="canvas-mechanical-label" x="144.8438476925141" y="127.6064588613436" text-anchor="start" fill="#253043" font-size="4.2" stroke="none">R72</text></g><text class="canvas-mechanical-note" x="218" y="38" fill="#253043" font-size="4.4" font-weight="700" stroke="none">2D EXERCISES</text><text class="canvas-mechanical-note" x="221" y="52" fill="#253043" font-size="4.4" font-weight="700" stroke="none">354</text><g class="canvas-mechanical-block" data-canvas-mechanical-id="exercise-354-title-block"><rect x="197" y="165" width="90" height="35" fill="#ffffff" stroke="#253043" stroke-width="0.35" /><text class="canvas-mechanical-block-title" x="200" y="170.5" fill="#253043" font-size="4" font-weight="700" stroke="none">TITLE BLOCK</text><text class="canvas-mechanical-table-header" x="200" y="176.2" fill="#253043" font-size="3.1" font-weight="700" stroke="none">Title</text><text class="canvas-mechanical-table-cell" x="227.6" y="176.4" fill="#253043" font-size="3.6" stroke="none">2D Exercise 354</text><line x1="197" y1="177.6" x2="287" y2="177.6" stroke="#253043" stroke-width="0.25" /><text class="canvas-mechanical-table-header" x="200" y="181.79999999999998" fill="#253043" font-size="3.1" font-weight="700" stroke="none">Drawing</text><text class="canvas-mechanical-table-cell" x="227.6" y="182" fill="#253043" font-size="3.6" stroke="none">M39D-354</text><line x1="197" y1="183.2" x2="287" y2="183.2" stroke="#253043" stroke-width="0.25" /><text class="canvas-mechanical-table-header" x="200" y="187.39999999999998" fill="#253043" font-size="3.1" font-weight="700" stroke="none">Rev</text><text class="canvas-mechanical-table-cell" x="227.6" y="187.6" fill="#253043" font-size="3.6" stroke="none">A</text><line x1="197" y1="188.8" x2="287" y2="188.8" stroke="#253043" stroke-width="0.25" /><text class="canvas-mechanical-table-header" x="200" y="193" fill="#253043" font-size="3.1" font-weight="700" stroke="none">Scale</text><text class="canvas-mechanical-table-cell" x="227.6" y="193.20000000000002" fill="#253043" font-size="3.6" stroke="none">Fit to A4</text><line x1="197" y1="194.4" x2="287" y2="194.4" stroke="#253043" stroke-width="0.25" /><text class="canvas-mechanical-table-header" x="200" y="198.6" fill="#253043" font-size="3.1" font-weight="700" stroke="none">Units</text><text class="canvas-mechanical-table-cell" x="227.6" y="198.8" fill="#253043" font-size="3.6" stroke="none">mm</text></g></g>
  </g>
</svg>
